<svg xmlns="http://www.w3.org/2000/svg" viewBox="0 0 1827 1827"><defs><style>.cls-1{fill:#0a8;}.cls-2{fill:#00d4aa;}.cls-3{isolation:isolate;opacity:0.1;}.cls-4{fill:#fff;}</style></defs><g id="Layer_2" data-name="Layer 2"><g id="svg22240"><g id="g54925"><path id="path54927" class="cls-1" d="M1827,913.5C1827,1418,1418,1827,913.5,1827h0C409,1827,0,1418,0,913.5H0C0,409,409,0,913.5,0h0C1418,0,1827,409,1827,913.5Z"/><path id="path54929" class="cls-2" d="M913.5,0C409,0,0,409,0,913.5H0C0,1418,409,1827,913.5,1827h0Z"/></g><path id="path56702" class="cls-3" d="M916.33,366.24h0q-108.21,0-169.64,33.19-61.4,33.39-61.38,89,0,40.32,18.92,110.33l151.84,583.07,63.68,63.69c-2.22,0-4.41-.28-6.67-.28q-54.93,0-93.05,31.74c-25.43,21.14-38.12,46.8-38.12,76.76q0,38.89,29,67.91l366.4,366.41a913.52,913.52,0,0,0,626.37-675.64L1115,423.83q-13.8-13.81-34.92-25.18-60.88-32.55-163.76-32.46Z"/><path id="path40180" class="cls-4" d="M916.33,366.26q-108.21,0-169.63,33.18-61.4,33.39-61.4,89,0,40.32,18.94,110.32l151.84,583.1h91.23l170.36-584.78Q1141,519,1141,484.7c0-35.56-20.33-64.12-60.93-86s-95.16-32.48-163.75-32.48Zm-3.24,879.06q-54.93,0-93.06,31.78t-38.13,76.72c0,29.68,12.68,55.16,38,76.16s56.36,31.64,93.18,31.64q55,0,93.18-31.64,38.14-31.92,38.13-76.16,0-44.73-38.31-76.58t-93-31.92Z"/></g></g></svg>