<svg xmlns="http://www.w3.org/2000/svg" viewBox="0 0 84.58 81.15"><defs><style>.cls-1{fill:#445664;}.cls-2{fill:#ebab16;}.cls-3{fill:#f2594b;}.cls-4{fill:#504d48;}.cls-5{fill:#25a2c2;}</style></defs><g id="Layer_2" data-name="Layer 2"><g id="Layer_1-2" data-name="Layer 1"><path class="cls-1" d="M77.43,25.54a7.15,7.15,0,1,1-7.14,7.15A7.15,7.15,0,0,1,77.43,25.54Z"/><path class="cls-2" d="M64,66.86A7.15,7.15,0,1,1,56.86,74,7.15,7.15,0,0,1,64,66.86Z"/><path class="cls-1" d="M49,60.74a1.35,1.35,0,1,1-.27-2.68A34.89,34.89,0,0,0,66,47.46a8.38,8.38,0,0,0,.09-11,9.15,9.15,0,0,1-.89-7.35,5.58,5.58,0,0,0-3.42-2.37V23.44a13.14,13.14,0,0,0-.36-2.58,9.32,9.32,0,0,1,9.3,6.22,8.73,8.73,0,0,0,4.57,14.08,12.44,12.44,0,0,1-7.83,13.62c-1,.46-2.07.91-3.12,1.33a85.41,85.41,0,0,1-15.1,4.59Z"/><path class="cls-3" d="M60.53,26.81a85,85,0,0,1-.31,15.79,2.29,2.29,0,0,1,0,.25,1.36,1.36,0,0,1-2.65-.58,34.86,34.86,0,0,0-4.73-19.7,8.41,8.41,0,0,0-10.46-3.5,9.16,9.16,0,0,1-7.27-1.42,5.6,5.6,0,0,0-3.3,2.52l-3.12-1a14,14,0,0,0-2.56-.45,9.27,9.27,0,0,1,8.78-6.91,8.74,8.74,0,0,0,14.8,0A12.4,12.4,0,0,1,60.22,23.44C60.35,24.57,60.46,25.69,60.53,26.81Z"/><path class="cls-3" d="M49.43,7.15A7.15,7.15,0,1,1,42.29,0,7.14,7.14,0,0,1,49.43,7.15Z"/><path class="cls-4" d="M46.63,26.69A1.35,1.35,0,0,1,45.26,29a34.94,34.94,0,0,0-20.2-1.58A8.38,8.38,0,0,0,18.5,36.3a9.12,9.12,0,0,1-3.6,6.47,5.64,5.64,0,0,0,1.38,3.93l-1.93,2.65a14.1,14.1,0,0,0-1.23,2.3A9.32,9.32,0,0,1,9.26,41.16a8.75,8.75,0,0,0,4.58-14.08,12.41,12.41,0,0,1,14.34-6.42c1.1.23,2.2.48,3.3.76a86.49,86.49,0,0,1,14.91,5.16A1.28,1.28,0,0,1,46.63,26.69Z"/><path class="cls-2" d="M28.54,55.65A1.35,1.35,0,0,1,31,54.56,34.84,34.84,0,0,0,46.43,67.72a8.38,8.38,0,0,0,10.51-3.31,9.16,9.16,0,0,1,6.73-3.13,5.56,5.56,0,0,0,1.18-4l3.12-1a13.38,13.38,0,0,0,2.35-1.13,9.3,9.3,0,0,1-3,10.75,8.74,8.74,0,0,0-12,8.71,12.42,12.42,0,0,1-15.37-3.24c-.54-.59-1.07-1.2-1.6-1.8a86.75,86.75,0,0,1-9.66-13.7A1.59,1.59,0,0,1,28.54,55.65Z"/><path class="cls-5" d="M29,34.71a1.35,1.35,0,0,1-.11,1.91,34.89,34.89,0,0,0-7.75,18.73,8.4,8.4,0,0,0,6.41,9,9.11,9.11,0,0,1,5,5.42,5.52,5.52,0,0,0,4.15-.1l.53.72,1.41,1.94a13.91,13.91,0,0,0,1.8,1.88,9.34,9.34,0,0,1-11.18.43,8.73,8.73,0,0,0-12-8.71,12.4,12.4,0,0,1-1.68-15.62c.56-1,1.13-2,1.74-2.91a85.37,85.37,0,0,1,9.52-12.58,1.54,1.54,0,0,1,.17-.19A1.36,1.36,0,0,1,29,34.71Z"/><path class="cls-5" d="M20.57,66.86A7.15,7.15,0,1,1,13.42,74,7.14,7.14,0,0,1,20.57,66.86Z"/><path class="cls-4" d="M7.14,25.54A7.15,7.15,0,1,1,0,32.69,7.14,7.14,0,0,1,7.14,25.54Z"/></g></g></svg>