<?xml version="1.0" encoding="utf-8"?>
<!-- Generator: Adobe Illustrator 26.0.3, SVG Export Plug-In . SVG Version: 6.00 Build 0)  -->
<svg version="1.1" id="Layer_1" xmlns="http://www.w3.org/2000/svg" xmlns:xlink="http://www.w3.org/1999/xlink" x="0px" y="0px"
	 viewBox="0 0 1827 1827" style="enable-background:new 0 0 1827 1827;" xml:space="preserve">
<style type="text/css">
	.st0{fill:#C7CC00;}
	.st1{fill:#F4F408;}
	.st2{opacity:0.1;enable-background:new    ;}
	.st3{fill:#FFFFFF;}
</style>
<path id="path54921" class="st0" d="M1827,913.5c0,504.5-409,913.5-913.5,913.5l0,0C409,1827,0,1418,0,913.5l0,0
	C0,409,409,0,913.5,0l0,0C1418,0,1827,409,1827,913.5z"/>
<path id="path54923" class="st1" d="M913.5,0C409,0,0,409,0,913.5l0,0C0,1418,409,1827,913.5,1827l0,0V0z"/>
<path id="path53574" class="st2" d="M916.3,366.2L916.3,366.2c-72.1,0-128.7,11.1-169.6,33.2c-40.9,22.3-61.4,51.9-61.4,89
	c0,26.9,6.3,63.7,18.9,110.3l151.8,583.1l63.7,63.7c-2.2,0-4.4-0.3-6.7-0.3c-36.6,0-67.6,10.6-93,31.7
	c-25.4,21.1-38.1,46.8-38.1,76.8c0,25.9,9.7,48.6,29,67.9l366.4,366.4c315.4-95.7,554.7-353.9,626.4-675.6L1115,423.8
	c-9.2-9.2-20.8-17.6-34.9-25.2C1039.5,376.9,984.9,366.1,916.3,366.2L916.3,366.2z"/>
<path id="path38716" class="st3" d="M916.3,366.3c-72.1,0-128.7,11.1-169.6,33.2c-40.9,22.3-61.4,51.9-61.4,89
	c0,26.9,6.3,63.7,18.9,110.3l151.9,583.1h91.2l170.4-584.8c15.6-52.1,23.3-89.5,23.3-112.4c0-35.6-20.3-64.1-60.9-86
	S984.9,366.2,916.3,366.3L916.3,366.3z M913.1,1245.3c-36.6,0-67.7,10.6-93.1,31.8s-38.1,46.8-38.1,76.7c0,29.7,12.7,55.2,38,76.2
	s56.4,31.6,93.2,31.6c36.7,0,67.7-10.5,93.2-31.6c25.4-21.3,38.1-46.7,38.1-76.2c0-29.8-12.8-55.3-38.3-76.6
	C980.5,1256,949.5,1245.4,913.1,1245.3L913.1,1245.3z"/>
</svg>
