<svg xmlns="http://www.w3.org/2000/svg" viewBox="0 0 1827 1827"><defs><style>.cls-1{fill:#4a0;}.cls-2{fill:#55d400;}.cls-3{isolation:isolate;opacity:0.1;}.cls-4{fill:#fff;}</style></defs><g id="Layer_2" data-name="Layer 2"><g id="svg22240"><g id="g54919"><path id="path54921" class="cls-1" d="M1827,913.5C1827,1418,1418,1827,913.5,1827h0C409,1827,0,1418,0,913.5H0C0,409,409,0,913.5,0h0C1418,0,1827,409,1827,913.5Z"/><path id="path54923" class="cls-2" d="M913.5,0C409,0,0,409,0,913.5H0C0,1418,409,1827,913.5,1827h0Z"/></g><path id="path53574" class="cls-3" d="M916.33,366.24h0q-108.21,0-169.64,33.19-61.4,33.39-61.39,89,0,40.32,18.92,110.33l151.84,583.07,63.69,63.69c-2.23,0-4.41-.28-6.68-.28q-54.93,0-93,31.74c-25.43,21.14-38.12,46.8-38.12,76.76q0,38.89,29,67.91l366.41,366.41a913.5,913.5,0,0,0,626.36-675.64L1115,423.83q-13.8-13.81-34.92-25.18-60.9-32.55-163.76-32.46Z"/><path id="path38716" class="cls-4" d="M916.32,366.26q-108.21,0-169.62,33.18-61.4,33.39-61.41,89,0,40.32,18.94,110.32l151.85,583.1H947.3l170.36-584.78Q1141,519,1141,484.7c0-35.56-20.32-64.12-60.92-86s-95.17-32.48-163.76-32.48Zm-3.23,879.06q-54.95,0-93.07,31.78t-38.12,76.72c0,29.68,12.67,55.16,38,76.16s56.37,31.64,93.19,31.64q55,0,93.18-31.64,38.13-31.92,38.13-76.16,0-44.73-38.32-76.58T913.09,1245.32Z"/></g></g></svg>