<svg xmlns="http://www.w3.org/2000/svg" viewBox="0 0 88.22 86.45"><defs><style>.cls-1{fill:#7cc63e;}.cls-2{fill:#7a7a7d;}.cls-3{fill:#edbd09;}.cls-4{fill:#e96074;}.cls-5{fill:#40c5ee;}</style></defs><g id="Layer_2" data-name="Layer 2"><g id="Layer_1-2" data-name="Layer 1"><path class="cls-1" d="M87.27,30a16.89,16.89,0,0,1-8.15,20.56l-5.28,2c-2.76,1-5.5,2.08-8.25,3.14a3.09,3.09,0,0,1-2-5.86,99.91,99.91,0,0,0,12.66-4.87,10.63,10.63,0,0,0,5.18-12.62,3.59,3.59,0,0,0-.14-.43,10.63,10.63,0,0,0-11.74-7.59c-2.18.43-4.34.92-6.48,1.5q-.15-3.07-.3-6.12c1.94-.5,3.88-1,5.8-1.6A16.89,16.89,0,0,1,87.27,30Z"/><path class="cls-1" d="M81.44,32.29a7,7,0,0,1,.33,2.15,7.21,7.21,0,1,1-.47-2.58A3.59,3.59,0,0,1,81.44,32.29Z"/><path class="cls-2" d="M78,59.77a16.89,16.89,0,0,1-5.54,21.45,16.89,16.89,0,0,1-22.06-1.39q-3.68-4.62-7.38-9.2l-1.69-2.09a3.1,3.1,0,0,1,5-3.71,100.41,100.41,0,0,0,8.55,10.54,10.64,10.64,0,0,0,13.41,1.16l.05,0,.38-.26.13-.1a10.66,10.66,0,0,0,3.58-13.52c-1.08-1.94-2.22-3.83-3.42-5.69l5.72-2.17C75.76,56.44,76.86,58.12,78,59.77Z"/><path class="cls-2" d="M64.24,63.26a7.24,7.24,0,0,1,4.43,13l-.38.26-.05,0a7.24,7.24,0,1,1-4-13.27Z"/><path class="cls-3" d="M60.83,28.57a3.1,3.1,0,0,1-6.2.08,100.36,100.36,0,0,0-.71-13.54A10.66,10.66,0,0,0,43.06,6.28a10.65,10.65,0,0,0-10.85,8.83q-.39,3.29-.58,6.62l-5.91-1.61c.13-2,.22-4,.29-6A16.88,16.88,0,0,1,43.09,0a16.9,16.9,0,0,1,17,14.1c.08,1.88.17,3.77.27,5.65C60.52,22.7,60.67,25.63,60.83,28.57Z"/><path class="cls-4" d="M41.15,72.14,45,76.91c-1.27,1.54-2.53,3.11-3.75,4.69A16.91,16.91,0,0,1,19.11,83a16.91,16.91,0,0,1-5.49-21.43l3.1-4.73,4.84-7.38A3.1,3.1,0,0,1,26.61,53a99.57,99.57,0,0,0-7.38,11.37,10.65,10.65,0,0,0,2.94,13l.15.12.41.3.1.07a10.65,10.65,0,0,0,14-.77C38.29,75.53,39.75,73.86,41.15,72.14Z"/><circle class="cls-3" cx="43.43" cy="13.51" r="7.23" transform="translate(-1.14 4.42) rotate(-5.75)"/><path class="cls-5" d="M33.6,24.74a3.09,3.09,0,0,1-1.83,5.91,100.37,100.37,0,0,0-13.1-3.5A10.63,10.63,0,0,0,7.16,34a2.47,2.47,0,0,0-.1.29l-.13.42a10.64,10.64,0,0,0,5,13q3,1.41,6.11,2.59c-1.1,1.72-2.23,3.43-3.34,5.13-1.87-.74-3.75-1.44-5.63-2.12A16.92,16.92,0,0,1,1,32.78,16.9,16.9,0,0,1,19.64,20.94Q25.33,22.5,31,24Z"/><path class="cls-4" d="M26.77,64.62a7.23,7.23,0,1,1-3.94,13.3l-.1-.07-.41-.3-.15-.12a7.23,7.23,0,0,1,4.6-12.81Z"/><path class="cls-5" d="M13.91,29.39a7.24,7.24,0,1,1-7.23,7.25,6.9,6.9,0,0,1,.25-1.89l.13-.42c0-.1.06-.19.1-.29A7.23,7.23,0,0,1,13.91,29.39Z"/></g></g></svg>