<svg xmlns="http://www.w3.org/2000/svg" viewBox="0 0 81.62 81.33"><defs><style>.cls-1{fill:#8fa3a2;}.cls-2{fill:#07789a;}.cls-3{fill:#7eaa2e;}.cls-4{fill:#383433;}.cls-5{fill:#b2273e;}</style></defs><g id="Layer_2" data-name="Layer 2"><g id="Layer_1-2" data-name="Layer 1"><path class="cls-1" d="M74.65,47.71a7,7,0,1,1-7,7A7,7,0,0,1,74.65,47.71Z"/><path class="cls-2" d="M72.87,20.26a35.65,35.65,0,0,1,4.44,25.81,9,9,0,0,0-7.19.82A27.11,27.11,0,0,0,55,30.17a34.54,34.54,0,0,0-15.14,5.6A32.72,32.72,0,0,1,40,25.09,25.05,25.05,0,0,1,59.39,17a9,9,0,0,0,13.48,3.27Z"/><path class="cls-2" d="M67.49,6.06a7,7,0,1,1-7,7A7,7,0,0,1,67.49,6.06Z"/><path class="cls-1" d="M68.17,61A9.22,9.22,0,0,0,69.43,62a35.63,35.63,0,0,1-23.18,12.2,9,9,0,0,0-3-6.58A27.08,27.08,0,0,0,54.48,48.09a34.61,34.61,0,0,0-10-12.67,32.28,32.28,0,0,1,10.19-3.15A25,25,0,0,1,68.38,48.2,9,9,0,0,0,68.17,61Z"/><path class="cls-3" d="M60.13,7.84a9,9,0,0,0-1.45,7.1A27,27,0,0,0,38.1,24.16a34.61,34.61,0,0,0,.64,16.12,32.65,32.65,0,0,1-10.1-3.44,25,25,0,0,1-1.71-21A9,9,0,0,0,34.59,5.71a9.92,9.92,0,0,0-.39-1.63A35.67,35.67,0,0,1,60.13,7.84Z"/><path class="cls-4" d="M46.24,39.72a32.64,32.64,0,0,1,6.15,8.72,25,25,0,0,1-10.92,18,9,9,0,0,0-12.18,3.74,8.67,8.67,0,0,0-.65,1.54A35.65,35.65,0,0,1,9.88,53.4a9,9,0,0,0,5.33-4.89,27.07,27.07,0,0,0,22.07,4.63A34.49,34.49,0,0,0,46.24,39.72Z"/><path class="cls-4" d="M37.25,67.39a7,7,0,1,1-7,7A7,7,0,0,1,37.25,67.39Z"/><path class="cls-3" d="M25.66,0a7,7,0,1,1-7,7A7,7,0,0,1,25.66,0Z"/><path class="cls-5" d="M18.45,12.37a9,9,0,0,0,6.3,3.56,27.11,27.11,0,0,0,2.41,22.42,34.48,34.48,0,0,0,15.53,4.38,32.52,32.52,0,0,1-6.39,8.54,25,25,0,0,1-20.45-4.84A9,9,0,0,0,8.53,36a8.4,8.4,0,0,0-1.66-.14A35.67,35.67,0,0,1,18.45,12.37Z"/><path class="cls-5" d="M7,37.91a7,7,0,1,1-7,7A7,7,0,0,1,7,37.91Z"/></g></g></svg>