<svg xmlns="http://www.w3.org/2000/svg" viewBox="0 0 84.89 83.61"><defs><style>.cls-1{fill:#859940;}.cls-2{fill:#f25157;}.cls-3{fill:#cdbe9d;}.cls-4{fill:#1d9fd3;}.cls-5{fill:#eb7102;}</style></defs><g id="Layer_2" data-name="Layer 2"><g id="Layer_1-2" data-name="Layer 1"><path class="cls-1" d="M82.76,44.86a2.43,2.43,0,0,1-.6,4.83,52.59,52.59,0,0,1-21.65-4.9,18.41,18.41,0,0,0-5.52-17,52.54,52.54,0,0,1,14.62-16.7,2.37,2.37,0,0,1,.65-.43,2.43,2.43,0,1,1,2,4.42,17.54,17.54,0,0,0-8,16.65,9.81,9.81,0,0,0,1.42,4.37A17.56,17.56,0,0,0,82,44.89,2.56,2.56,0,0,1,82.76,44.86Z"/><circle class="cls-1" cx="74.08" cy="30.98" r="8" transform="translate(26.97 96) rotate(-76.76)"/><path class="cls-2" d="M62,60.17a8,8,0,1,1-8,8A8,8,0,0,1,62,60.17Z"/><path class="cls-3" d="M61.57,2.86A2.44,2.44,0,0,1,62.74,6.1,52.61,52.61,0,0,1,51.38,25.17a18.44,18.44,0,0,0-17.87,0A52.61,52.61,0,0,1,22.15,6.1a2.39,2.39,0,0,1-.21-.75,2.44,2.44,0,0,1,4.84-.57A17.51,17.51,0,0,0,40.14,17.49a9.71,9.71,0,0,0,4.61,0A17.53,17.53,0,0,0,58.12,4.78,2.23,2.23,0,0,1,58.34,4,2.43,2.43,0,0,1,61.57,2.86Z"/><path class="cls-2" d="M51.21,80a2.8,2.8,0,0,1,.27.73,2.46,2.46,0,0,1-1.94,2.86,2.43,2.43,0,0,1-2.84-1.94,52.66,52.66,0,0,1-2-22.1A18.43,18.43,0,0,0,59.14,49a52.77,52.77,0,0,1,20.39,8.75,2.93,2.93,0,0,1,.62.48,2.44,2.44,0,1,1-3.58,3.31,17.54,17.54,0,0,0-18.29-2.42,9.61,9.61,0,0,0-3.73,2.7A17.54,17.54,0,0,0,51.21,80Z"/><path class="cls-3" d="M42.45,0a8,8,0,1,1-8,8A8,8,0,0,1,42.45,0Z"/><path class="cls-4" d="M40.22,59.53a52.49,52.49,0,0,1-2,22.1,2.38,2.38,0,0,1-.27.73A2.43,2.43,0,1,1,33.69,80a17.55,17.55,0,0,0-3.35-18.14,9.65,9.65,0,0,0-3.72-2.7A17.54,17.54,0,0,0,8.33,61.56a2.44,2.44,0,1,1-3-3.79A52.75,52.75,0,0,1,25.76,49,18.43,18.43,0,0,0,40.22,59.53Z"/><path class="cls-4" d="M22.89,60.17a8,8,0,1,1-8,8A8,8,0,0,1,22.89,60.17Z"/><circle class="cls-5" cx="10.81" cy="30.98" r="8" transform="translate(-18.74 16.72) rotate(-45)"/><path class="cls-5" d="M2.74,49.69a2.27,2.27,0,0,1-.78,0,2.44,2.44,0,0,1,1-4.78A17.57,17.57,0,0,0,19.14,36.1a9.68,9.68,0,0,0,1.41-4.37,17.53,17.53,0,0,0-8-16.65,2.53,2.53,0,0,1-.65-.43,2.44,2.44,0,0,1,3.33-3.56,52.7,52.7,0,0,1,14.63,16.7,18.38,18.38,0,0,0-5.52,17A52.63,52.63,0,0,1,2.74,49.69Z"/></g></g></svg>