<svg xmlns="http://www.w3.org/2000/svg" xmlns:xlink="http://www.w3.org/1999/xlink" viewBox="0 0 360 360"><defs><style>.cls-1{isolation:isolate;}.cls-2{fill:#d6006d;}.cls-3{fill:#f1f2f2;}.cls-4{fill:#ff5100;}.cls-5{fill:#00afaa;}.cls-6{fill:#57bf17;}.cls-7{mix-blend-mode:soft-light;}.cls-8{fill:url(#linear-gradient);}.cls-9{fill:url(#linear-gradient-2);}.cls-10{fill:url(#linear-gradient-3);}.cls-11{fill:url(#linear-gradient-4);}.cls-12{fill:url(#linear-gradient-5);}.cls-13{fill:url(#linear-gradient-6);}.cls-14{fill:url(#linear-gradient-7);}.cls-15{fill:url(#linear-gradient-8);}</style><linearGradient id="linear-gradient" x1="370.43" y1="179.27" x2="281.09" y2="180.6" gradientUnits="userSpaceOnUse"><stop offset="0.02" stop-color="#bebdbd"/><stop offset="0.24" stop-color="#969494"/><stop offset="0.6" stop-color="#585556"/><stop offset="0.86" stop-color="#322e2f"/><stop offset="1" stop-color="#231f20"/></linearGradient><linearGradient id="linear-gradient-2" x1="304.26" y1="140.14" x2="152.92" y2="237.47" xlink:href="#linear-gradient"/><linearGradient id="linear-gradient-3" x1="193.29" y1="272.62" x2="150.63" y2="129.29" xlink:href="#linear-gradient"/><linearGradient id="linear-gradient-4" x1="158.16" y1="49.73" x2="195.16" y2="197.23" xlink:href="#linear-gradient"/><linearGradient id="linear-gradient-5" x1="5.72" y1="222.69" x2="229.72" y2="144.69" xlink:href="#linear-gradient"/><linearGradient id="linear-gradient-6" x1="183.73" y1="1.47" x2="175.73" y2="81.47" xlink:href="#linear-gradient"/><linearGradient id="linear-gradient-7" x1="185.02" y1="357.82" x2="173.68" y2="275.15" xlink:href="#linear-gradient"/><linearGradient id="linear-gradient-8" x1="-14.73" y1="176.1" x2="81.27" y2="183.1" xlink:href="#linear-gradient"/></defs><g class="cls-1"><g id="Layer_2" data-name="Layer 2"><g id="Layer_1-2" data-name="Layer 1"><g id="LWPOLYLINE"><circle class="cls-2" cx="321.22" cy="180" r="38.78"/><path class="cls-2" d="M289,213.51a45.7,45.7,0,0,0,5.37,4.44,88.59,88.59,0,0,1-33.27,28,63.68,63.68,0,0,0,3.39-16.32,76.13,76.13,0,0,1-65.74,8.89L146.85,221.6a12.42,12.42,0,0,1,14.68-8l42.32,13.73a12.52,12.52,0,0,0,15.77-8l2-6.09c.35.12.71.22,1.08.31a12.41,12.41,0,0,0,14.27-7l13.42-41.31a88.63,88.63,0,0,0-4.47-66.25,64,64,0,0,1,41.81,48.9A46.48,46.48,0,0,0,289,213.51Z"/><path class="cls-3" d="M264.5,229.58a63.68,63.68,0,0,1-3.39,16.32,88.63,88.63,0,0,1-66.25,4.47L153.55,237a12.41,12.41,0,0,1-7-14.27c.09-.37.19-.73.31-1.08l51.91,16.87A76.13,76.13,0,0,0,264.5,229.58Z"/><path class="cls-3" d="M245.9,98.89a88.63,88.63,0,0,1,4.47,66.25L237,206.45a12.41,12.41,0,0,1-14.27,7c-.37-.09-.73-.19-1.08-.31l16.87-51.91a76.13,76.13,0,0,0-8.89-65.74A63.59,63.59,0,0,1,245.9,98.89Z"/><path class="cls-4" d="M261.11,245.9a63.94,63.94,0,0,1-48.9,41.81,46.45,46.45,0,0,0-70.16,6.67,88.53,88.53,0,0,1-28-33.28,63.18,63.18,0,0,0,16.32,3.4,76.13,76.13,0,0,1-8.89-65.74l16.87-51.91a12.42,12.42,0,0,1,8,14.68l-13.73,42.32a12.52,12.52,0,0,0,8,15.77l6.09,2c-.12.35-.22.71-.31,1.08a12.41,12.41,0,0,0,7,14.27l41.31,13.42A88.63,88.63,0,0,0,261.11,245.9Z"/><path class="cls-5" d="M229.58,95.5a76.13,76.13,0,0,1,8.89,65.74L221.6,213.15a12.42,12.42,0,0,1-8-14.68l13.73-42.32a12.52,12.52,0,0,0-8-15.77l-6.09-2c.12-.35.22-.71.31-1.08a12.41,12.41,0,0,0-7-14.27l-41.31-13.42A88.6,88.6,0,0,0,98.9,114.1a63.92,63.92,0,0,1,48.89-41.81A46.49,46.49,0,0,0,218,65.62a88.59,88.59,0,0,1,28,33.27A63.59,63.59,0,0,0,229.58,95.5Z"/><path class="cls-3" d="M206.45,123.05a12.41,12.41,0,0,1,7,14.27c-.09.37-.19.73-.31,1.08l-51.91-16.87a76.13,76.13,0,0,0-65.74,8.89,63.18,63.18,0,0,1,3.4-16.32,88.6,88.6,0,0,1,66.24-4.47Z"/><path class="cls-6" d="M161.24,121.53l51.91,16.87a12.42,12.42,0,0,1-14.68,8l-42.32-13.73a12.52,12.52,0,0,0-15.77,8l-2,6.09c-.35-.12-.71-.22-1.08-.31a12.41,12.41,0,0,0-14.27,7l-13.42,41.31a88.6,88.6,0,0,0,4.47,66.24,63.91,63.91,0,0,1-41.81-48.89A46.49,46.49,0,0,0,71,146.48a47.5,47.5,0,0,0-5.37-4.43,88.53,88.53,0,0,1,33.28-28,63.18,63.18,0,0,0-3.4,16.32A76.13,76.13,0,0,1,161.24,121.53Z"/><path class="cls-5" d="M180,0a38.78,38.78,0,1,1-38.78,38.78A38.78,38.78,0,0,1,180,0Z"/><circle class="cls-4" cx="180" cy="321.22" r="38.78"/><path class="cls-3" d="M138.4,146.85l-16.87,51.91a76.13,76.13,0,0,0,8.89,65.74,63.18,63.18,0,0,1-16.32-3.4,88.6,88.6,0,0,1-4.47-66.24l13.42-41.31a12.41,12.41,0,0,1,14.27-7C137.69,146.63,138.05,146.73,138.4,146.85Z"/><path class="cls-6" d="M38.78,141.22A38.78,38.78,0,1,1,0,180,38.78,38.78,0,0,1,38.78,141.22Z"/></g><g class="cls-7"><g id="LWPOLYLINE-2" data-name="LWPOLYLINE"><circle class="cls-8" cx="321.22" cy="180" r="38.78"/><path class="cls-9" d="M289,213.51a45.7,45.7,0,0,0,5.37,4.44,88.59,88.59,0,0,1-33.27,28,63.68,63.68,0,0,0,3.39-16.32,76.13,76.13,0,0,1-65.74,8.89L146.85,221.6a12.42,12.42,0,0,1,14.68-8l42.32,13.73a12.52,12.52,0,0,0,15.77-8l2-6.09c.35.12.71.22,1.08.31a12.41,12.41,0,0,0,14.27-7l13.42-41.31a88.63,88.63,0,0,0-4.47-66.25,64,64,0,0,1,41.81,48.9A46.48,46.48,0,0,0,289,213.51Z"/><path class="cls-10" d="M261.11,245.9a63.94,63.94,0,0,1-48.9,41.81,46.45,46.45,0,0,0-70.16,6.67,88.53,88.53,0,0,1-28-33.28,63.18,63.18,0,0,0,16.32,3.4,76.13,76.13,0,0,1-8.89-65.74l16.87-51.91a12.42,12.42,0,0,1,8,14.68l-13.73,42.32a12.52,12.52,0,0,0,8,15.77l6.09,2c-.12.35-.22.71-.31,1.08a12.41,12.41,0,0,0,7,14.27l41.31,13.42A88.63,88.63,0,0,0,261.11,245.9Z"/><path class="cls-11" d="M229.58,95.5a76.13,76.13,0,0,1,8.89,65.74L221.6,213.15a12.42,12.42,0,0,1-8-14.68l13.73-42.32a12.52,12.52,0,0,0-8-15.77l-6.09-2c.12-.35.22-.71.31-1.08a12.41,12.41,0,0,0-7-14.27l-41.31-13.42A88.6,88.6,0,0,0,98.9,114.1a63.92,63.92,0,0,1,48.89-41.81A46.49,46.49,0,0,0,218,65.62a88.59,88.59,0,0,1,28,33.27A63.59,63.59,0,0,0,229.58,95.5Z"/><path class="cls-12" d="M161.24,121.53l51.91,16.87a12.42,12.42,0,0,1-14.68,8l-42.32-13.73a12.52,12.52,0,0,0-15.77,8l-2,6.09c-.35-.12-.71-.22-1.08-.31a12.41,12.41,0,0,0-14.27,7l-13.42,41.31a88.6,88.6,0,0,0,4.47,66.24,63.91,63.91,0,0,1-41.81-48.89A46.49,46.49,0,0,0,71,146.48a47.5,47.5,0,0,0-5.37-4.43,88.53,88.53,0,0,1,33.28-28,63.18,63.18,0,0,0-3.4,16.32A76.13,76.13,0,0,1,161.24,121.53Z"/><path class="cls-13" d="M180,0a38.78,38.78,0,1,1-38.78,38.78A38.78,38.78,0,0,1,180,0Z"/><circle class="cls-14" cx="180" cy="321.22" r="38.78"/><path class="cls-15" d="M38.78,141.22A38.78,38.78,0,1,1,0,180,38.78,38.78,0,0,1,38.78,141.22Z"/></g></g></g></g></g></svg>