<svg xmlns="http://www.w3.org/2000/svg" viewBox="0 0 89.44 85.82"><defs><style>.cls-1{fill:#9e6f9d;}.cls-2{fill:#0cb3c3;}.cls-3{fill:#7a7a7d;}.cls-4{fill:#f7ad56;}.cls-5{fill:#b3ce4b;}</style></defs><g id="Layer_2" data-name="Layer 2"><g id="Layer_1-2" data-name="Layer 1"><circle class="cls-1" cx="82.49" cy="34.26" r="6.96"/><path class="cls-1" d="M79.43,42.08a35,35,0,0,1-1.19,14.67l-6.42-2.08a28.6,28.6,0,0,0,1.07-5.81l-8.17-.64A20,20,0,0,0,60,33.67l6.23-5.31a27.47,27.47,0,0,0-4.28-4.07l4-5.48a35,35,0,0,1,9.49,11A8.39,8.39,0,0,0,78,41.36,8.61,8.61,0,0,0,79.43,42.08Z"/><circle class="cls-2" cx="68.22" cy="78.71" r="6.96"/><path class="cls-3" d="M64.7,17.94l-4,5.47a27.77,27.77,0,0,0-5.2-2.81l-3.13,7.57a20,20,0,0,0-15.29,0L34,20.6a28,28,0,0,0-5.19,2.81l-4-5.46a34.92,34.92,0,0,1,13.35-5.63A8.41,8.41,0,0,0,50,13.4a9,9,0,0,0,1.11-1.12A34.86,34.86,0,0,1,64.7,17.94Z"/><path class="cls-3" d="M44.63,0a7,7,0,1,1-7,7A6.95,6.95,0,0,1,44.63,0Z"/><path class="cls-2" d="M59.84,78.21a35,35,0,0,1-14.32,3.41V74.87a29.07,29.07,0,0,0,5.86-.78l-1.92-8a20,20,0,0,0,12.38-9l7,4.29a28.92,28.92,0,0,0,2.54-5.33h0l6.43,2.07a35,35,0,0,1-7.51,12.41,8.39,8.39,0,0,0-10.2,6.08A8.17,8.17,0,0,0,59.84,78.21Z"/><path class="cls-4" d="M44,74.87v6.75a34.94,34.94,0,0,1-14.11-3.3A8.41,8.41,0,0,0,21,70.49a7.48,7.48,0,0,0-1.56.26,35,35,0,0,1-7.67-12.57l6.42-2.09a29,29,0,0,0,2.55,5.33l7-4.29a20.09,20.09,0,0,0,12.38,9l-1.92,8A28.88,28.88,0,0,0,44,74.87Z"/><path class="cls-5" d="M23.31,28.36l6.23,5.31a20,20,0,0,0-4.73,14.55l-8.17.64a28.62,28.62,0,0,0,1.08,5.81l-6.43,2.09a34.73,34.73,0,0,1-1.21-14.44A8.4,8.4,0,0,0,14.75,31.4,8.81,8.81,0,0,0,14,30,35.13,35.13,0,0,1,23.6,18.82h0l4,5.46A26.59,26.59,0,0,0,23.31,28.36Z"/><circle class="cls-4" cx="21.53" cy="78.87" r="6.96" transform="translate(-59.62 88.75) rotate(-81.67)"/><path class="cls-5" d="M13.91,34.52a7,7,0,1,1-7-7A7,7,0,0,1,13.91,34.52Z"/></g></g></svg>