<svg xmlns="http://www.w3.org/2000/svg" viewBox="0 0 212.92 205.84"><defs><style>.cls-1{fill:#ffa62b;}.cls-2{fill:#c90035;}.cls-3{fill:#3bc3d0;}</style></defs><g id="Layer_2" data-name="Layer 2"><g id="Layer_1-2" data-name="Layer 1"><g id="ARC"><path class="cls-1" d="M187.27,57.19a103.89,103.89,0,0,1,1.26,135.24L160,175.94A79.06,79.06,0,0,1,91.42,188.2a4.08,4.08,0,0,1,2-7.9,69.1,69.1,0,0,0,60.09-27.05,26.07,26.07,0,0,0,31.32-28.58,62.11,62.11,0,0,0-3.68-63,3.82,3.82,0,0,1,6.14-4.45Z"/><path class="cls-2" d="M185.24,89a4.08,4.08,0,0,1-7.83,2.23,67.88,67.88,0,0,0-51.85-39.63A26.06,26.06,0,0,0,85.15,38.72a62.14,62.14,0,0,0-52.74,34.7,3.81,3.81,0,0,1-6.92-3.09A103.91,103.91,0,0,1,142,1.61v33A78.73,78.73,0,0,1,185.24,89Z"/><circle class="cls-1" cx="158.92" cy="127.75" r="19.94"/><path class="cls-3" d="M120.65,199.31a3.82,3.82,0,0,1-2.9,4.56A103.91,103.91,0,0,1,0,137.34l28.56-16.49A79.1,79.1,0,0,1,52.22,55.36,4.08,4.08,0,0,1,58.07,61a69.13,69.13,0,0,0-6.62,65.56A26.06,26.06,0,0,0,60.55,168,62.12,62.12,0,0,0,117,196.33,3.81,3.81,0,0,1,120.65,199.31Z"/><path class="cls-2" d="M100.77,39.67A19.94,19.94,0,1,1,80.83,59.6,19.93,19.93,0,0,1,100.77,39.67Z"/><path class="cls-3" d="M70.82,124.11A19.94,19.94,0,1,1,50.89,144,19.93,19.93,0,0,1,70.82,124.11Z"/></g></g></g></svg>