<svg xmlns="http://www.w3.org/2000/svg" viewBox="0 0 247.26 221.17"><defs><style>.cls-1{fill:#4cc4c0;}.cls-2{fill:#ff8b3a;}.cls-3{fill:#d73949;}</style></defs><g id="Layer_2" data-name="Layer 2"><g id="Layer_1-2" data-name="Layer 1"><g id="INSERT"><g id="INSERT-2" data-name="INSERT"><g id="LINE"><circle class="cls-1" cx="26.21" cy="194.96" r="26.21" transform="translate(-169.71 177.3) rotate(-77.19)"/><path class="cls-1" d="M86.46,160.28l34.06,37.82a59.9,59.9,0,0,1-63.82,4.39,31.43,31.43,0,0,0-23-38,30.58,30.58,0,0,0-4.64-.78,59.92,59.92,0,0,1,47.28-52.6l34.71-7.37a8.38,8.38,0,0,1,3.23,16.38l-34.46,7.34-15,3.2a2.36,2.36,0,0,0-1.82,2.8l6.48,30.46Z"/><circle class="cls-2" cx="221.06" cy="194.96" r="26.21" transform="translate(-15.56 370.71) rotate(-78.01)"/><path class="cls-2" d="M176.63,111.71a59.9,59.9,0,0,1,35.7,53.07,31.38,31.38,0,0,0-19.8,43.32,59.9,59.9,0,0,1-69.2-14.66L99.59,167.08a8.38,8.38,0,0,1,12.57-11l23.6,26.17,10.29,11.44a2.36,2.36,0,0,0,3.33.17L172.53,173l-11.64-12.93Z"/><path class="cls-3" d="M128.9,79.2l-5.37,16.54L73.75,106.31a59.92,59.92,0,0,1,28.11-57.46A31.41,31.41,0,0,0,146.27,48a30.59,30.59,0,0,0,3-3.63,59.93,59.93,0,0,1,21.92,67.25l-11,33.75a8.39,8.39,0,0,1-15.81-5.4l10.88-33.52L160,91.8a2.37,2.37,0,0,0-1.52-3Z"/><circle class="cls-3" cx="123.63" cy="26.21" r="26.21" transform="translate(70.02 140.64) rotate(-76.87)"/></g></g></g></g></g></svg>