<svg xmlns="http://www.w3.org/2000/svg" viewBox="0 0 86.22 82.7"><defs><style>.cls-1{fill:#ebab16;}.cls-2{fill:#6faa00;}.cls-3{fill:#655150;}.cls-4{fill:#f26150;}.cls-5{fill:#2a9ecf;}</style></defs><g id="Layer_2" data-name="Layer 2"><g id="Layer_1-2" data-name="Layer 1"><path class="cls-1" d="M79,26a7.27,7.27,0,1,1-7.28,7.26A7.27,7.27,0,0,1,79,26Z"/><path class="cls-1" d="M78.33,42.17a35.31,35.31,0,0,1-8,25.32,13.64,13.64,0,0,0-3.06-16.33,11.9,11.9,0,0,0-.07-12.68,10.42,10.42,0,0,0-14.47-2.81,9.49,9.49,0,0,0-1.36,1.08,12,12,0,0,1,20.81-9.2l0,.06a8.88,8.88,0,0,0,1.1,12.51,9,9,0,0,0,4.73,2Z"/><path class="cls-2" d="M65.26,68.16A7.27,7.27,0,1,1,58,75.44,7.27,7.27,0,0,1,65.26,68.16Z"/><path class="cls-2" d="M56.64,77.59a35.33,35.33,0,0,1-26.56.2,12.73,12.73,0,0,0,2.75.15,13.61,13.61,0,0,0,11.84-8.1,11.92,11.92,0,0,0,12-4,10.41,10.41,0,0,0-1.79-14.63,11.37,11.37,0,0,0-1.45-1A12,12,0,0,1,68.63,67.21h0a8.87,8.87,0,0,0-12,10C56.59,77.35,56.61,77.47,56.64,77.59Z"/><path class="cls-3" d="M51.35,10.59A35.37,35.37,0,0,1,73,26a13.6,13.6,0,0,0-12.7-3.63,13.18,13.18,0,0,0-3.79,1.49A11.88,11.88,0,0,0,44.4,20.05,10.42,10.42,0,0,0,37.25,33a11,11,0,0,0,.61,1.62,12,12,0,0,1-2.31-22.64l0,.05a8.89,8.89,0,0,0,15.63-1.06C51.25,10.82,51.31,10.7,51.35,10.59Z"/><path class="cls-3" d="M50.38,7.27A7.27,7.27,0,1,1,43.11,0,7.26,7.26,0,0,1,50.38,7.27Z"/><path class="cls-4" d="M31.62,46.73a12.08,12.08,0,0,1-8.95,5.78,12.34,12.34,0,0,1-3,0A12,12,0,0,1,9.37,41.94h.06a8.89,8.89,0,0,0,3.82-15.2L13,26.5A35.35,35.35,0,0,1,34.35,10.72a13.72,13.72,0,0,0-7.14,15A11.9,11.9,0,0,0,19.83,36,10.42,10.42,0,0,0,29.89,46.81,10.07,10.07,0,0,0,31.62,46.73Z"/><path class="cls-5" d="M28.23,75.44A7.27,7.27,0,1,1,21,68.16,7.26,7.26,0,0,1,28.23,75.44Z"/><path class="cls-4" d="M7.28,26A7.27,7.27,0,1,1,0,33.3,7.26,7.26,0,0,1,7.28,26Z"/><path class="cls-5" d="M7.85,42.7A13.62,13.62,0,0,0,19.43,54.06a4,4,0,0,0,.5.06,11.86,11.86,0,0,0,7.51,10.21A10.41,10.41,0,0,0,40.79,58.1a8.79,8.79,0,0,0,.46-1.67A12,12,0,0,1,29.82,76.1V76a8.89,8.89,0,0,0-13.27-8.33l-.31.19A35.34,35.34,0,0,1,7.85,42.7Z"/></g></g></svg>