<svg xmlns="http://www.w3.org/2000/svg" viewBox="0 0 83.19 80.68"><defs><style>.cls-1{fill:#445664;}.cls-2{fill:#25a2c2;}.cls-3{fill:#ff7d1f;}.cls-4{fill:#8fa3a2;}.cls-5{fill:#b2273e;}</style></defs><g id="Layer_2" data-name="Layer 2"><g id="Layer_1-2" data-name="Layer 1"><path class="cls-1" d="M81.75,26.72a1.81,1.81,0,0,1-.69,3.55A12.37,12.37,0,0,0,66.54,39a7.82,7.82,0,0,0,6.27,9.09c.29.05.58.08.87.11A27,27,0,0,1,69,62.37,25.07,25.07,0,0,0,48.78,38.64,25.14,25.14,0,0,1,64.54,26.85a35.77,35.77,0,0,1,4.13-.77A36.92,36.92,0,0,1,81.75,26.72Z"/><path class="cls-1" d="M74.22,34.05a6.39,6.39,0,1,1-6.39,6.38A6.39,6.39,0,0,1,74.22,34.05Z"/><path class="cls-2" d="M70.6,75.91a1.8,1.8,0,0,1-3.58.45,12.37,12.37,0,0,0-12.83-11.1A7.78,7.78,0,0,0,47.5,74a6.35,6.35,0,0,0,.16.87,27,27,0,0,1-14.88,0,25.07,25.07,0,0,0,16.3-26.59A25.07,25.07,0,0,1,65.16,59.59c.58.93,1.11,1.87,1.6,2.84A37.09,37.09,0,0,1,70.6,75.91Z"/><path class="cls-3" d="M56.37,15.24a26.94,26.94,0,0,1,12,8.78A25.07,25.07,0,0,0,39.56,36a25.13,25.13,0,0,1-6.35-18.64,38.61,38.61,0,0,1,.57-4.3A37,37,0,0,1,38.4.92a1.81,1.81,0,0,1,3.17,1.75,12.37,12.37,0,0,0,3.85,16.52A7.8,7.8,0,0,0,56,16C56.13,15.77,56.25,15.51,56.37,15.24Z"/><path class="cls-2" d="M55.23,66.61A6.39,6.39,0,1,1,48.84,73,6.39,6.39,0,0,1,55.23,66.61Z"/><path class="cls-3" d="M55.51,12.32a6.39,6.39,0,1,1-6.38-6.38A6.38,6.38,0,0,1,55.51,12.32Z"/><path class="cls-4" d="M40,51.49A25.14,25.14,0,0,1,34.22,70.3a37.64,37.64,0,0,1-3.8,3.88,37.05,37.05,0,0,1-10,6.34,1.81,1.81,0,0,1-1.52-3.28,12.37,12.37,0,0,0,6.59-15.62A7.81,7.81,0,0,0,15,58a6.31,6.31,0,0,0-.76.42A27,27,0,0,1,9.7,44.21,25.06,25.06,0,0,0,40,51.49Z"/><path class="cls-4" d="M18.4,58.61A6.39,6.39,0,1,1,12,65,6.38,6.38,0,0,1,18.4,58.61Z"/><path class="cls-5" d="M14.63,21.1a6.39,6.39,0,1,1-6.39,6.4A6.39,6.39,0,0,1,14.63,21.1Z"/><path class="cls-5" d="M3.12,31.71A12.38,12.38,0,0,0,20,33.14a7.8,7.8,0,0,0,.26-11c-.2-.21-.42-.41-.64-.6a27.12,27.12,0,0,1,12.07-8.72A25.08,25.08,0,0,0,34.15,43.9a25.09,25.09,0,0,1-19.68.28,38.11,38.11,0,0,1-3.92-1.87A37.29,37.29,0,0,1,.48,34.18a1.83,1.83,0,0,1,.08-2.55A1.81,1.81,0,0,1,3.12,31.71Z"/></g></g></svg>