<svg xmlns="http://www.w3.org/2000/svg" viewBox="0 0 80.89 80.89"><defs><style>.cls-1{fill:#e46777;}.cls-2{fill:#0cb3c3;}.cls-3{fill:#9e6f9d;}.cls-4{fill:#f7ad56;}</style></defs><g id="Layer_2" data-name="Layer 2"><g id="Layer_1-2" data-name="Layer 1"><circle class="cls-1" cx="71.02" cy="20.98" r="9.87" transform="translate(38.97 87.74) rotate(-80.81)"/><path class="cls-1" d="M72.1,40.25H65.56a2.16,2.16,0,0,0-2.15,2.17v3.51a2.17,2.17,0,0,1-2.17,2.17H56.48a2.16,2.16,0,0,1-2.16-2.17V42.42a2.17,2.17,0,0,0-2.17-2.17H44.87a2.15,2.15,0,0,1-2.16-2.16V31.2A2.17,2.17,0,0,1,44.87,29h3.52a2.15,2.15,0,0,0,2.16-2.15V17.19A2.16,2.16,0,0,0,48.39,15H44.87a2.16,2.16,0,0,1-2.16-2.15v-4A31.54,31.54,0,0,1,60.49,16a11.66,11.66,0,0,0,10.63,16.7A32,32,0,0,1,72.1,40.25Z"/><path class="cls-2" d="M68,42.71h4a31.62,31.62,0,0,1-7.08,17.78A11.66,11.66,0,0,0,49.38,66a11.54,11.54,0,0,0-1.14,5.13,32,32,0,0,1-7.6,1V65.57a2.16,2.16,0,0,0-2.16-2.16H35a2.17,2.17,0,0,1-2.16-2.17V56.48A2.16,2.16,0,0,1,35,54.32h3.52a2.17,2.17,0,0,0,2.16-2.17V44.87a2.16,2.16,0,0,1,2.16-2.16h6.9a2.15,2.15,0,0,1,2.16,2.16v3.52A2.16,2.16,0,0,0,54,50.55H63.7a2.15,2.15,0,0,0,2.16-2.16V44.87A2.16,2.16,0,0,1,68,42.71Z"/><circle class="cls-2" cx="59.91" cy="71.02" r="9.87" transform="translate(-22.93 113.1) rotate(-76.77)"/><path class="cls-3" d="M48.1,19.65v4.76a2.17,2.17,0,0,1-2.17,2.17H42.42a2.16,2.16,0,0,0-2.17,2.16V36a2.15,2.15,0,0,1-2.16,2.16H31.2A2.16,2.16,0,0,1,29,36V32.5a2.16,2.16,0,0,0-2.15-2.16H17.19A2.17,2.17,0,0,0,15,32.5V36a2.15,2.15,0,0,1-2.15,2.16h-4A31.6,31.6,0,0,1,16,20.4,11.66,11.66,0,0,0,32.65,9.77a31.48,31.48,0,0,1,7.6-1v6.53a2.17,2.17,0,0,0,2.17,2.16h3.51A2.17,2.17,0,0,1,48.1,19.65Z"/><path class="cls-4" d="M38.18,68v4A31.68,31.68,0,0,1,20.4,64.94,11.66,11.66,0,0,0,9.77,48.24a31.48,31.48,0,0,1-1-7.6h6.53a2.16,2.16,0,0,0,2.16-2.16V35a2.16,2.16,0,0,1,2.16-2.16h4.76A2.17,2.17,0,0,1,26.58,35v3.52a2.16,2.16,0,0,0,2.16,2.16H36a2.16,2.16,0,0,1,2.16,2.16v6.9A2.15,2.15,0,0,1,36,51.86H32.5A2.17,2.17,0,0,0,30.34,54V63.7a2.16,2.16,0,0,0,2.16,2.16H36A2.16,2.16,0,0,1,38.18,68Z"/><circle class="cls-3" cx="20.98" cy="9.87" r="9.87" transform="translate(-2.18 8.73) rotate(-22.36)"/><circle class="cls-4" cx="9.87" cy="59.91" r="9.87" transform="translate(-39.47 24.53) rotate(-45)"/></g></g></svg>